<?xml version="1.0" standalone="yes"?>

<svg version="1.1" viewBox="0.0 0.0 960.0 720.0" fill="none" stroke="none" stroke-linecap="square" stroke-miterlimit="10" xmlns="http://www.w3.org/2000/svg" xmlns:xlink="http://www.w3.org/1999/xlink"><clipPath id="p.0"><path d="m0 0l960.0 0l0 720.0l-960.0 0l0 -720.0z" clip-rule="nonzero"></path></clipPath><g clip-path="url(#p.0)"><path fill="#000000" fill-opacity="0.0" d="m0 0l960.0 0l0 720.0l-960.0 0z" fill-rule="evenodd"></path><path fill="#ffffff" d="m184.62006 197.57628l338.17322 0l0 88.47243l-338.17322 0z" fill-rule="evenodd"></path><path stroke="#000000" stroke-width="4.0" stroke-linejoin="round" stroke-linecap="butt" d="m184.62006 197.57628l338.17322 0l0 88.47243l-338.17322 0z" fill-rule="evenodd"></path><path fill="#000000" d="m228.31168 222.27812q6.3125 0 10.015625 3.046875q3.703125 3.046875 3.9375 8.921875l-4.765625 0q-0.4375 -3.875 -2.796875 -5.796875q-2.34375 -1.9375 -6.59375 -1.9375q-4.03125 0 -6.265625 1.671875q-2.21875 1.671875 -2.21875 4.78125q0 2.21875 1.890625 3.640625q1.90625 1.421875 10.265625 3.109375q6.0625 1.234375 9.0625 3.796875q3.0 2.5625 3.0 7.125q0 5.28125 -4.3125 8.281265q-4.3125 3.0 -10.484375 3.0q-6.859375 0 -11.21875 -3.4375q-4.34375 -3.4531403 -4.390625 -9.92189l4.765625 0q0.046875 4.328125 3.078125 6.71875q3.046875 2.3906403 7.9375 2.3906403q4.578125 0 7.09375 -1.7656403q2.515625 -1.78125 2.515625 -5.109375q0 -2.6875 -2.3125 -4.3125q-2.296875 -1.640625 -8.359375 -2.8125q-8.0625 -1.515625 -10.8125 -3.9375q-2.75 -2.421875 -2.75 -6.390625q0 -5.09375 3.875 -8.078125q3.875 -2.984375 9.84375 -2.984375zm23.2258 11.328125l8.0 22.406265l0.09375 0l7.6875 -22.406265l4.796875 0l-11.65625 30.32814q-1.828125 4.734375 -3.53125 6.390625q-1.6875 1.65625 -4.6875 1.65625q-0.828125 0 -1.609375 -0.109375q-0.78125 -0.09375 -1.53125 -0.359375l0 -4.140625q0.65625 0.21875 1.3125 0.421875q0.65625 0.203125 1.328125 0.203125q2.75 0 3.828125 -2.75q1.09375 -2.734375 1.734375 -4.390625l-10.859375 -27.250015l5.09375 0zm33.648438 -0.625q5.53125 0 8.21875 2.15625q2.703125 2.140625 2.953125 6.40625l-4.5 0l0 -0.046875q-0.171875 -2.171875 -1.90625 -3.359375q-1.71875 -1.1875 -4.421875 -1.1875q-2.71875 0 -4.296875 0.921875q-1.5625 0.90625 -1.5625 2.5625q0 1.5 1.375 2.46875q1.390625 0.953125 4.1875 1.546875l4.25 0.953125q3.984375 0.890625 6.046875 2.71875q2.078125 1.8125 2.078125 4.890625q0 4.0468903 -3.140625 6.3437653q-3.125 2.296875 -8.53125 2.296875q-5.25 0 -8.328125 -2.34375q-3.078125 -2.359375 -3.296875 -6.9375153l4.53125 0q0.078125 2.5625 2.015625 3.9375153q1.953125 1.359375 5.34375 1.359375q3.25 0 4.9375 -1.03125q1.6875 -1.0312653 1.6875 -3.0468903q0 -1.84375 -1.671875 -2.90625q-1.671875 -1.078125 -6.84375 -2.125q-5.1875 -1.0 -7.296875 -2.84375q-2.109375 -1.859375 -2.109375 -4.9375q0 -3.59375 2.921875 -5.6875q2.9375 -2.109375 7.359375 -2.109375zm23.820312 -7.578125l0 8.203125l5.453125 0l0 3.984375l-5.453125 0l0 17.15625q0 2.0468903 1.359375 2.1718903q1.359375 0.109375 2.828125 0.109375l1.265625 0l0 3.984375l-3.71875 0q-3.703125 0 -4.96875 -1.3125q-1.265625 -1.328125 -1.265625 -4.4375153l0 -17.671875l-4.6875 0l0 -3.984375l4.6875 0l0 -8.203125l4.5 0zm21.920258 7.578125q5.890625 0 9.15625 4.25q3.265625 4.25 3.265625 10.890625l0 0.546875l-20.53125 0l0 0.328125q0 3.921875 2.28125 6.296875q2.28125 2.3750153 6.265625 2.3750153q3.0 0 4.765625 -1.390625q1.78125 -1.4062653 2.328125 -3.9687653l4.453125 0q-0.90625 4.5625153 -4.0 6.9531403q-3.078125 2.390625 -7.703125 2.390625q-4.328125 0 -7.3125 -1.953125q-2.984375 -1.953125 -4.40625 -5.4218903q-1.421875 -3.484375 -1.421875 -7.140625q0 -6.046875 3.640625 -10.09375q3.65625 -4.0625 9.21875 -4.0625zm-8.109375 11.703125l15.734375 0q-0.203125 -3.34375 -2.421875 -5.53125q-2.203125 -2.203125 -5.515625 -2.203125q-3.109375 0 -5.3125 2.09375q-2.1875 2.09375 -2.484375 5.640625zm38.56491 -11.703125q3.0 0 4.890625 1.21875q1.90625 1.21875 2.640625 3.4375q1.390625 -2.1875 3.640625 -3.421875q2.25 -1.234375 4.96875 -1.234375q4.640625 0 6.859375 2.109375q2.234375 2.09375 2.234375 5.65625l0 20.26564l-4.515625 0l0 -18.17189q0 -2.953125 -1.25 -4.421875q-1.25 -1.46875 -4.046875 -1.46875q-3.375 0 -5.265625 1.96875q-1.875 1.953125 -1.875 4.890625l0 17.20314l-4.53125 0l0 -18.17189q0 -2.953125 -1.25 -4.421875q-1.234375 -1.46875 -3.875 -1.46875q-2.15625 0 -3.8125 1.03125q-1.65625 1.03125 -2.59375 2.828125q-0.921875 1.796875 -0.921875 3.046875l0 17.156265l-4.5 0l0 -27.406265l4.25 0l0 4.03125l0.09375 0q1.5625 -2.34375 3.75 -3.5q2.203125 -1.15625 5.109375 -1.15625zm63.90036 -10.703125q6.28125 0 10.515625 3.265625q4.234375 3.25 5.0625 9.015625l-5.015625 0q-0.828125 -3.875 -3.640625 -5.953125q-2.8125 -2.09375 -6.96875 -2.09375q-6.015625 0 -9.421875 4.25q-3.390625 4.234375 -3.390625 11.078125q0 7.234375 3.328125 11.53125q3.34375 4.2968903 9.53125 4.2968903q4.625 0 7.59375 -2.9375153q2.96875 -2.9375 3.328125 -7.984375l5.046875 0q-0.828125 7.359375 -5.109375 11.26564q-4.28125 3.90625 -11.28125 3.90625q-8.125 0 -12.8125 -5.375q-4.671875 -5.3906403 -4.671875 -14.343765q0 -8.828125 4.828125 -14.375q4.84375 -5.546875 13.078125 -5.546875zm32.91812 10.703125q5.59375 0 7.9375 2.0q2.34375 1.984375 2.34375 5.328125q0 14.265625 0 15.812515q0 1.546875 1.421875 1.546875q0.3125 0 0.671875 -0.078125q0.359375 -0.078125 0.703125 -0.171875l0 3.484375q-0.625 0.375 -1.453125 0.5625q-0.8125 0.1875 -1.765625 0.1875q-1.859375 0 -2.84375 -1.046875q-0.984375 -1.046875 -0.984375 -3.1875q-1.78125 2.125 -4.21875 3.1875q-2.4375 1.046875 -5.4375 1.046875q-4.234375 0 -6.640625 -2.0q-2.40625 -2.0 -2.40625 -5.6875153q0 -3.6875 2.34375 -5.84375q2.359375 -2.171875 11.078125 -3.265625q2.953125 -0.375 4.0 -1.125q1.046875 -0.75 1.046875 -2.25q0 -2.28125 -1.46875 -3.40625q-1.453125 -1.125 -4.640625 -1.125q-3.328125 0 -5.0 1.265625q-1.671875 1.265625 -1.796875 3.9375l-4.515625 0q0.21875 -4.5625 3.21875 -6.859375q3.0 -2.3125 8.40625 -2.3125zm-7.921875 20.65625q0 1.921875 1.390625 2.9843903q1.40625 1.046875 3.921875 1.046875q3.796875 0 6.078125 -1.8750153q2.28125 -1.890625 2.28125 -4.234375l0 -4.703125q-1.140625 0.796875 -2.953125 1.09375q-1.8125 0.28125 -4.8125 0.6875q-3.0 0.4375 -4.453125 1.640625q-1.453125 1.1875 -1.453125 3.359375zm30.12741 -30.453125l0 37.82814l-4.5 0l0 -37.82814l4.5 0zm11.847809 0l0 37.82814l-4.5 0l0 -37.82814l4.5 0z" fill-rule="nonzero"></path><path fill="#fbd4b4" d="m184.62006 38.788555l338.17322 0l0 88.47244l-338.17322 0z" fill-rule="evenodd"></path><path stroke="#000000" stroke-width="4.0" stroke-linejoin="round" stroke-linecap="butt" d="m184.62006 38.788555l338.17322 0l0 88.47244l-338.17322 0z" fill-rule="evenodd"></path><path fill="#000000" d="m277.901 64.396645q5.1875 0 8.265625 2.828125q3.09375 2.8125 3.09375 8.34375q0 5.5625 -3.09375 8.375q-3.078125 2.8125 -7.90625 2.8125l-12.171875 0l0 15.46875l-5.015625 0l0 -37.828125l16.828125 0zm-1.40625 18.109375q3.59375 0 5.65625 -1.6875q2.078125 -1.703125 2.078125 -5.25q0 -3.5 -2.046875 -5.21875q-2.03125 -1.71875 -6.0 -1.71875l-10.09375 0l0 13.875l10.40625 0zm32.022675 -8.328125q0.15625 0 0.28125 0q0.125 0 0.34375 0.015625l0 4.765625q-5.078125 0 -7.5 2.703125q-2.421875 2.6875 -2.421875 8.296875l0 12.265625l-4.5 0l0 -27.40625l4.25 0l0 5.765625l0.09375 0q1.578125 -3.25 3.890625 -4.828125q2.328125 -1.578125 5.5625 -1.578125zm15.9461975 0.015625q6.203125 0 9.75 4.015625q3.546875 4.015625 3.546875 10.34375q0 6.40625 -3.625 10.359375q-3.625 3.953125 -9.671875 3.953125q-5.953125 0 -9.625 -3.890625q-3.671875 -3.890625 -3.671875 -10.421875q0 -6.515625 3.59375 -10.4375q3.59375 -3.921875 9.703125 -3.921875zm-8.546875 14.359375q0 4.71875 2.40625 7.53125q2.40625 2.796875 6.140625 2.796875q3.703125 0 6.109375 -2.8125q2.421875 -2.828125 2.421875 -7.515625q0 -4.671875 -2.40625 -7.53125q-2.40625 -2.859375 -6.171875 -2.859375q-3.625 0 -6.0625 2.8125q-2.4375 2.796875 -2.4375 7.578125zm38.77826 -14.359375q5.015625 0 8.140625 2.390625q3.140625 2.375 3.6875 7.03125l-4.65625 0q-0.546875 -2.65625 -2.328125 -4.046875q-1.765625 -1.40625 -4.453125 -1.40625q-4.1875 0 -6.375 2.8125q-2.171875 2.796875 -2.171875 7.890625q0 4.5625 2.140625 7.296875q2.15625 2.71875 5.859375 2.71875q3.28125 0 5.1875 -1.765625q1.90625 -1.78125 2.34375 -4.90625l4.609375 0q-0.75 5.125 -3.859375 7.890625q-3.109375 2.765625 -8.234375 2.765625q-5.96875 0 -9.390625 -3.765625q-3.40625 -3.765625 -3.40625 -10.234375q0 -6.71875 3.453125 -10.6875q3.453125 -3.984375 9.453125 -3.984375zm28.59616 0q5.890625 0 9.15625 4.25q3.265625 4.25 3.265625 10.890625l0 0.546875l-20.53125 0l0 0.328125q0 3.921875 2.28125 6.296875q2.28125 2.375 6.265625 2.375q3.0 0 4.765625 -1.390625q1.78125 -1.40625 2.328125 -3.96875l4.453125 0q-0.90625 4.5625 -4.0 6.953125q-3.078125 2.390625 -7.703125 2.390625q-4.328125 0 -7.3125 -1.953125q-2.984375 -1.953125 -4.40625 -5.421875q-1.421875 -3.484375 -1.421875 -7.140625q0 -6.046875 3.640625 -10.09375q3.65625 -4.0625 9.21875 -4.0625zm-8.109375 11.703125l15.734375 0q-0.203125 -3.34375 -2.421875 -5.53125q-2.203125 -2.203125 -5.515625 -2.203125q-3.109375 0 -5.3125 2.09375q-2.1875 2.09375 -2.484375 5.640625zm34.47116 -11.703125q5.53125 0 8.21875 2.15625q2.703125 2.140625 2.953125 6.40625l-4.5 0l0 -0.046875q-0.171875 -2.171875 -1.90625 -3.359375q-1.71875 -1.1875 -4.421875 -1.1875q-2.71875 0 -4.296875 0.921875q-1.5625 0.90625 -1.5625 2.5625q0 1.5 1.375 2.46875q1.390625 0.953125 4.1875 1.546875l4.25 0.953125q3.984375 0.890625 6.046875 2.71875q2.078125 1.8125 2.078125 4.890625q0 4.046875 -3.140625 6.34375q-3.125 2.296875 -8.53125 2.296875q-5.25 0 -8.328125 -2.34375q-3.078125 -2.359375 -3.296875 -6.9375l4.53125 0q0.078125 2.5625 2.015625 3.9375q1.953125 1.359375 5.34375 1.359375q3.25 0 4.9375 -1.03125q1.6875 -1.03125 1.6875 -3.046875q0 -1.84375 -1.671875 -2.90625q-1.671875 -1.078125 -6.84375 -2.125q-5.1875 -1.0 -7.296875 -2.84375q-2.109375 -1.859375 -2.109375 -4.9375q0 -3.59375 2.921875 -5.6875q2.9375 -2.109375 7.359375 -2.109375zm26.664062 0q5.53125 0 8.21875 2.15625q2.703125 2.140625 2.953125 6.40625l-4.5 0l0 -0.046875q-0.171875 -2.171875 -1.90625 -3.359375q-1.71875 -1.1875 -4.421875 -1.1875q-2.71875 0 -4.296875 0.921875q-1.5625 0.90625 -1.5625 2.5625q0 1.5 1.375 2.46875q1.390625 0.953125 4.1875 1.546875l4.25 0.953125q3.984375 0.890625 6.046875 2.71875q2.078125 1.8125 2.078125 4.890625q0 4.046875 -3.140625 6.34375q-3.125 2.296875 -8.53125 2.296875q-5.25 0 -8.328125 -2.34375q-3.078125 -2.359375 -3.296875 -6.9375l4.53125 0q0.078125 2.5625 2.015625 3.9375q1.953125 1.359375 5.34375 1.359375q3.25 0 4.9375 -1.03125q1.6875 -1.03125 1.6875 -3.046875q0 -1.84375 -1.671875 -2.90625q-1.671875 -1.078125 -6.84375 -2.125q-5.1875 -1.0 -7.296875 -2.84375q-2.109375 -1.859375 -2.109375 -4.9375q0 -3.59375 2.921875 -5.6875q2.9375 -2.109375 7.359375 -2.109375z" fill-rule="nonzero"></path><path fill="#ffffff" d="m184.62006 328.48547l338.17322 0l0 88.47244l-338.17322 0z" fill-rule="evenodd"></path><path stroke="#000000" stroke-width="4.0" stroke-linejoin="round" stroke-linecap="butt" d="m184.62006 328.48547l338.17322 0l0 88.47244l-338.17322 0z" fill-rule="evenodd"></path><path fill="#000000" d="m230.79842 353.18732q6.3125 0 10.015625 3.046875q3.703125 3.046875 3.9375 8.921875l-4.765625 0q-0.4375 -3.875 -2.796875 -5.796875q-2.34375 -1.9375 -6.59375 -1.9375q-4.03125 0 -6.265625 1.671875q-2.21875 1.671875 -2.21875 4.78125q0 2.21875 1.890625 3.640625q1.90625 1.421875 10.265625 3.109375q6.0625 1.234375 9.0625 3.796875q3.0 2.5625 3.0 7.125q0 5.28125 -4.3125 8.28125q-4.3125 3.0 -10.484375 3.0q-6.859375 0 -11.21875 -3.4375q-4.34375 -3.453125 -4.390625 -9.921875l4.765625 0q0.046875 4.328125 3.078125 6.71875q3.046875 2.390625 7.9375 2.390625q4.578125 0 7.09375 -1.765625q2.515625 -1.78125 2.515625 -5.109375q0 -2.6875 -2.3125 -4.3125q-2.296875 -1.640625 -8.359375 -2.8125q-8.0625 -1.515625 -10.8125 -3.9375q-2.75 -2.421875 -2.75 -6.390625q0 -5.09375 3.875 -8.078125q3.875 -2.984375 9.84375 -2.984375zm25.86644 0.90625l0 5.5l-4.5000153 0l0 -5.5l4.5000153 0zm0 10.421875l0 27.40625l-4.5000153 0l0 -27.40625l4.5000153 0zm20.285309 -0.625q3.0 0 4.890625 1.21875q1.90625 1.21875 2.640625 3.4375q1.390625 -2.1875 3.640625 -3.421875q2.25 -1.234375 4.96875 -1.234375q4.640625 0 6.859375 2.109375q2.234375 2.09375 2.234375 5.65625l0 20.265625l-4.515625 0l0 -18.171875q0 -2.953125 -1.25 -4.421875q-1.25 -1.46875 -4.046875 -1.46875q-3.375 0 -5.265625 1.96875q-1.875 1.953125 -1.875 4.890625l0 17.203125l-4.53125 0l0 -18.171875q0 -2.953125 -1.25 -4.421875q-1.234375 -1.46875 -3.875 -1.46875q-2.15625 0 -3.8125 1.03125q-1.65625 1.03125 -2.59375 2.828125q-0.921875 1.796875 -0.921875 3.046875l0 17.15625l-4.5 0l0 -27.40625l4.25 0l0 4.03125l0.09375 0q1.5625 -2.34375 3.75 -3.5q2.203125 -1.15625 5.109375 -1.15625zm45.802856 0q5.875 0 9.25 4.046875q3.375 4.03125 3.375 10.375q0 6.359375 -3.375 10.3125q-3.359375 3.9375 -9.125 3.9375q-2.5625 0 -5.015625 -1.046875q-2.4375 -1.0625 -3.859375 -3.25l-0.109375 0l0 14.15625l-4.5 0l0 -37.90625l4.5 0l0 3.734375l0.109375 0q1.0625 -2.125 3.34375 -3.234375q2.296875 -1.125 5.40625 -1.125zm-9.015625 14.3125q0 4.765625 2.296875 7.578125q2.3125 2.796875 6.34375 2.796875q3.90625 0 6.046875 -2.78125q2.15625 -2.796875 2.15625 -7.796875q0 -4.421875 -2.265625 -7.28125q-2.25 -2.859375 -6.25 -2.859375q-3.953125 0 -6.140625 2.90625q-2.1875 2.890625 -2.1875 7.4375zm31.877106 -24.109375l0 37.828125l-4.5 0l0 -37.828125l4.5 0zm18.472809 9.796875q5.890625 0 9.15625 4.25q3.265625 4.25 3.265625 10.890625l0 0.546875l-20.53125 0l0 0.328125q0 3.921875 2.28125 6.296875q2.28125 2.375 6.265625 2.375q3.0 0 4.765625 -1.390625q1.78125 -1.40625 2.328125 -3.96875l4.453125 0q-0.90625 4.5625 -4.0 6.953125q-3.078125 2.390625 -7.703125 2.390625q-4.328125 0 -7.3125 -1.953125q-2.984375 -1.953125 -4.40625 -5.421875q-1.421875 -3.484375 -1.421875 -7.140625q0 -6.046875 3.640625 -10.09375q3.65625 -4.0625 9.21875 -4.0625zm-8.109375 11.703125l15.734375 0q-0.203125 -3.34375 -2.421875 -5.53125q-2.203125 -2.203125 -5.515625 -2.203125q-3.109375 0 -5.3125 2.09375q-2.1875 2.09375 -2.484375 5.640625zm44.143036 -21.5q4.953125 0 8.109375 2.609375q3.15625 2.609375 3.15625 7.296875q0 3.71875 -1.640625 6.1875q-1.625 2.453125 -4.9375 3.390625l0 0.09375q2.875 0.578125 4.234375 2.6875q1.359375 2.109375 1.5625 7.234375q0.125 3.3125 0.609375 5.203125q0.5 1.875 1.484375 3.125l-5.609375 0q-0.46875 -0.625 -0.609375 -1.234375q-0.140625 -0.609375 -0.265625 -1.671875l-0.21875 -4.15625q-0.078125 -2.921875 -1.25 -5.953125q-1.171875 -3.03125 -5.1875 -3.15625l-12.453125 0l0 16.171875l-5.015625 0l0 -37.828125l18.03125 0zm-2.25 17.4375q4.203125 0 6.34375 -1.640625q2.15625 -1.640625 2.15625 -5.109375q0 -3.0625 -1.734375 -4.75q-1.71875 -1.703125 -4.8125 -1.703125l-12.71875 0l0 13.203125l10.765625 0zm26.064148 -17.4375l19.921875 30.6875l0.09375 0l0 -30.6875l4.765625 0l0 37.828125l-5.515625 0l-19.765625 -30.375l-0.109375 0l0 30.375l-4.75 0l0 -37.828125l5.359375 0zm49.371246 -0.90625q6.703125 0 11.0 3.203125q4.296875 3.203125 5.25 9.34375l-5.015625 0q-0.75 -4.015625 -3.6875 -6.15625q-2.9375 -2.15625 -7.5625 -2.15625q-6.0625 0 -9.515625 4.484375q-3.453125 4.46875 -3.453125 11.5625q0 6.5 3.5625 10.8125q3.578125 4.296875 9.40625 4.296875q5.421875 0 8.78125 -3.265625q3.375 -3.28125 3.375 -8.484375l0 -0.59375l-12.109375 0l0 -4.234375l16.578125 0l0 19.921875l-3.15625 0l-1.34375 -4.703125q-2.046875 2.6875 -5.25 4.15625q-3.1875 1.453125 -6.875 1.453125q-7.75 0 -12.890625 -5.546875q-5.125 -5.5625 -5.125 -13.546875q0 -8.953125 4.84375 -14.75q4.859375 -5.796875 13.1875 -5.796875z" fill-rule="nonzero"></path><path fill="#ffffff" d="m184.62006 460.6065l338.17322 0l0 88.47241l-338.17322 0z" fill-rule="evenodd"></path><path stroke="#000000" stroke-width="4.0" stroke-linejoin="round" stroke-linecap="butt" d="m184.62006 460.6065l338.17322 0l0 88.47241l-338.17322 0z" fill-rule="evenodd"></path><path fill="#000000" d="m318.12375 486.2146q4.953125 0 8.109375 2.609375q3.15625 2.609375 3.15625 7.296875q0 3.71875 -1.640625 6.1875q-1.625 2.453125 -4.9375 3.390625l0 0.09375q2.875 0.578125 4.234375 2.6875q1.359375 2.109375 1.5625 7.234375q0.125 3.3125 0.609375 5.203125q0.5 1.875 1.484375 3.125l-5.609375 0q-0.46875 -0.625 -0.609375 -1.234375q-0.140625 -0.609375 -0.265625 -1.671875l-0.21875 -4.15625q-0.078125 -2.921875 -1.25 -5.953125q-1.171875 -3.03125 -5.1875 -3.15625l-12.453125 0l0 16.171875l-5.015625 0l0 -37.828125l18.03125 0zm-2.25 17.4375q4.203125 0 6.34375 -1.640625q2.15625 -1.640625 2.15625 -5.109375q0 -3.0625 -1.734375 -4.75q-1.71875 -1.703125 -4.8125 -1.703125l-12.71875 0l0 13.203125l10.765625 0zm26.064148 -17.4375l19.921875 30.6875l0.09375 0l0 -30.6875l4.765625 0l0 37.828125l-5.515625 0l-19.765625 -30.375l-0.109375 0l0 30.375l-4.75 0l0 -37.828125l5.359375 0zm49.371246 -0.90625q6.703125 0 11.0 3.203125q4.296875 3.203125 5.25 9.34375l-5.015625 0q-0.75 -4.015625 -3.6875 -6.15625q-2.9375 -2.15625 -7.5625 -2.15625q-6.0625 0 -9.515625 4.484375q-3.453125 4.46875 -3.453125 11.5625q0 6.5 3.5625 10.8125q3.578125 4.296875 9.40625 4.296875q5.421875 0 8.78125 -3.265625q3.375 -3.28125 3.375 -8.484375l0 -0.59375l-12.109375 0l0 -4.234375l16.578125 0l0 19.921875l-3.15625 0l-1.34375 -4.703125q-2.046875 2.6875 -5.25 4.15625q-3.1875 1.453125 -6.875 1.453125q-7.75 0 -12.890625 -5.546875q-5.125 -5.5625 -5.125 -13.546875q0 -8.953125 4.84375 -14.75q4.859375 -5.796875 13.1875 -5.796875z" fill-rule="nonzero"></path><path fill="#bfbfbf" d="m184.62006 592.72754l338.17322 0l0 88.47247l-338.17322 0z" fill-rule="evenodd"></path><path stroke="#000000" stroke-width="4.0" stroke-linejoin="round" stroke-linecap="butt" d="m184.62006 592.72754l338.17322 0l0 88.47247l-338.17322 0z" fill-rule="evenodd"></path><path fill="#000000" d="m250.03267 618.33563l0 14.453125l0.109375 0q0.984375 -2.1875 3.328125 -3.421875q2.359375 -1.234375 5.3437347 -1.234375q4.9375 0 7.171875 2.546875q2.25 2.53125 2.25 7.234375l0 18.25l-4.515625 0l0 -18.703125q0 -2.34375 -1.484375 -3.84375q-1.484375 -1.515625 -4.125 -1.515625q-3.8124847 0 -5.9531097 2.34375q-2.125 2.328125 -2.125 6.0625l0 15.65625l-4.5 0l0 -37.828125l4.5 0zm36.36168 9.796875q5.59375 0 7.9375 2.0q2.34375 1.984375 2.34375 5.328125q0 14.265625 0 15.8125q0 1.546875 1.421875 1.546875q0.3125 0 0.671875 -0.078125q0.359375 -0.078125 0.703125 -0.171875l0 3.484375q-0.625 0.375 -1.453125 0.5625q-0.8125 0.1875 -1.765625 0.1875q-1.859375 0 -2.84375 -1.046875q-0.984375 -1.046875 -0.984375 -3.1875q-1.78125 2.125 -4.21875 3.1875q-2.4375 1.046875 -5.4375 1.046875q-4.234375 0 -6.640625 -2.0q-2.40625 -2.0 -2.40625 -5.6875q0 -3.6875 2.34375 -5.84375q2.359375 -2.171875 11.078125 -3.265625q2.953125 -0.375 4.0 -1.125q1.046875 -0.75 1.046875 -2.25q0 -2.28125 -1.46875 -3.40625q-1.453125 -1.125 -4.640625 -1.125q-3.328125 0 -5.0 1.265625q-1.671875 1.265625 -1.796875 3.9375l-4.515625 0q0.21875 -4.5625 3.21875 -6.859375q3.0 -2.3125 8.40625 -2.3125zm-7.921875 20.65625q0 1.921875 1.390625 2.984375q1.40625 1.046875 3.921875 1.046875q3.796875 0 6.078125 -1.875q2.28125 -1.890625 2.28125 -4.234375l0 -4.703125q-1.140625 0.796875 -2.953125 1.09375q-1.8125 0.28125 -4.8125 0.6875q-3.0 0.4375 -4.453125 1.640625q-1.453125 1.1875 -1.453125 3.359375zm39.00241 -20.671875q0.15625 0 0.28125 0q0.125 0 0.34375 0.015625l0 4.765625q-5.078125 0 -7.5 2.703125q-2.421875 2.6875 -2.421875 8.296875l0 12.265625l-4.5 0l0 -27.40625l4.25 0l0 5.765625l0.09375 0q1.578125 -3.25 3.890625 -4.828125q2.328125 -1.578125 5.5625 -1.578125zm28.602448 -9.78125l0 37.828125l-4.5 0l0 -3.703125l-0.109375 0q-1.0625 2.125 -3.375 3.234375q-2.3125 1.109375 -5.375 1.109375q-5.75 0 -9.171875 -3.984375q-3.421875 -3.984375 -3.421875 -10.421875q0 -6.34375 3.3125 -10.296875q3.328125 -3.96875 9.15625 -3.96875q2.6875 0 5.109375 1.09375q2.421875 1.078125 3.765625 3.1875l0.109375 0l0 -14.078125l4.5 0zm-21.203125 24.34375q0 4.421875 2.28125 7.28125q2.296875 2.859375 6.21875 2.859375q3.984375 0 6.171875 -2.859375q2.1875 -2.859375 2.1875 -7.46875q0 -4.671875 -2.265625 -7.53125q-2.25 -2.859375 -6.4375 -2.859375q-3.875 0 -6.015625 2.828125q-2.140625 2.828125 -2.140625 7.75zm30.814606 -13.921875l6.203125 22.40625l0.109375 0l5.515625 -22.40625l4.921875 0l5.71875 22.28125l0.046875 0.125l0.078125 0l6.125 -22.40625l4.6875 0l-8.71875 27.328125l-0.046875 0.078125l-4.765625 0l-5.53125 -21.65625l-0.0625 -0.140625l-0.078125 0l-5.515625 21.796875l-4.859375 0l-8.796875 -27.40625l4.96875 0zm49.13147 -0.625q5.59375 0 7.9375 2.0q2.34375 1.984375 2.34375 5.328125q0 14.265625 0 15.8125q0 1.546875 1.421875 1.546875q0.3125 0 0.671875 -0.078125q0.359375 -0.078125 0.703125 -0.171875l0 3.484375q-0.625 0.375 -1.453125 0.5625q-0.8125 0.1875 -1.765625 0.1875q-1.859375 0 -2.84375 -1.046875q-0.984375 -1.046875 -0.984375 -3.1875q-1.78125 2.125 -4.21875 3.1875q-2.4375 1.046875 -5.4375 1.046875q-4.234375 0 -6.640625 -2.0q-2.40625 -2.0 -2.40625 -5.6875q0 -3.6875 2.34375 -5.84375q2.359375 -2.171875 11.078125 -3.265625q2.953125 -0.375 4.0 -1.125q1.046875 -0.75 1.046875 -2.25q0 -2.28125 -1.46875 -3.40625q-1.453125 -1.125 -4.640625 -1.125q-3.328125 0 -5.0 1.265625q-1.671875 1.265625 -1.796875 3.9375l-4.515625 0q0.21875 -4.5625 3.21875 -6.859375q3.0 -2.3125 8.40625 -2.3125zm-7.921875 20.65625q0 1.921875 1.390625 2.984375q1.40625 1.046875 3.921875 1.046875q3.796875 0 6.078125 -1.875q2.28125 -1.890625 2.28125 -4.234375l0 -4.703125q-1.140625 0.796875 -2.953125 1.09375q-1.8125 0.28125 -4.8125 0.6875q-3.0 0.4375 -4.453125 1.640625q-1.453125 1.1875 -1.453125 3.359375zm39.00241 -20.671875q0.15625 0 0.28125 0q0.125 0 0.34375 0.015625l0 4.765625q-5.078125 0 -7.5 2.703125q-2.421875 2.6875 -2.421875 8.296875l0 12.265625l-4.5 0l0 -27.40625l4.25 0l0 5.765625l0.09375 0q1.578125 -3.25 3.890625 -4.828125q2.328125 -1.578125 5.5625 -1.578125zm15.5086975 0.015625q5.890625 0 9.15625 4.25q3.265625 4.25 3.265625 10.890625l0 0.546875l-20.53125 0l0 0.328125q0 3.921875 2.28125 6.296875q2.28125 2.375 6.265625 2.375q3.0 0 4.765625 -1.390625q1.78125 -1.40625 2.328125 -3.96875l4.453125 0q-0.90625 4.5625 -4.0 6.953125q-3.078125 2.390625 -7.703125 2.390625q-4.328125 0 -7.3125 -1.953125q-2.984375 -1.953125 -4.40625 -5.421875q-1.421875 -3.484375 -1.421875 -7.140625q0 -6.046875 3.640625 -10.09375q3.65625 -4.0625 9.21875 -4.0625zm-8.109375 11.703125l15.734375 0q-0.203125 -3.34375 -2.421875 -5.53125q-2.203125 -2.203125 -5.515625 -2.203125q-3.109375 0 -5.3125 2.09375q-2.1875 2.09375 -2.484375 5.640625z" fill-rule="nonzero"></path><path fill="#000000" fill-opacity="0.0" d="m155.52924 160.00052l676.3779 1.1968536" fill-rule="evenodd"></path><path stroke="#000000" stroke-width="4.0" stroke-linejoin="round" stroke-linecap="butt" stroke-dasharray="16.0,12.0" d="m155.52924 160.00052l676.3779 1.1968536" fill-rule="evenodd"></path><path fill="#000000" fill-opacity="0.0" d="m569.3999 88.49848l110.36218 0l0 61.385826l-110.36218 0z" fill-rule="evenodd"></path><path fill="#000000" d="m587.2221 102.755356l0 19.78125q0 3.765625 2.140625 6.0q2.15625 2.21875 6.390625 2.21875q3.953125 0 5.96875 -2.21875q2.015625 -2.21875 2.015625 -6.0l0 -19.78125l4.078125 0l0 19.828125q0 5.421875 -3.03125 8.515625q-3.03125 3.09375 -9.03125 3.09375q-6.28125 0 -9.453125 -3.015625q-3.15625 -3.03125 -3.15625 -8.59375l0 -19.828125l4.078125 0zm33.679993 7.96875q4.5 0 6.671875 1.75q2.1875 1.734375 2.40625 5.1875l-3.65625 0l0 -0.03125q-0.15625 -1.765625 -1.546875 -2.734375q-1.390625 -0.96875 -3.59375 -0.96875q-2.21875 0 -3.484375 0.75q-1.265625 0.75 -1.265625 2.09375q0 1.21875 1.125 2.0q1.125 0.765625 3.390625 1.25l3.4375 0.78125q3.234375 0.703125 4.90625 2.1875q1.6875 1.484375 1.6875 3.984375q0 3.265625 -2.546875 5.140625q-2.53125 1.875 -6.921875 1.875q-4.265625 0 -6.765625 -1.90625q-2.5 -1.921875 -2.65625 -5.640625l3.671875 0q0.0625 2.078125 1.625 3.203125q1.578125 1.109375 4.328125 1.109375q2.65625 0 4.015625 -0.84375q1.359375 -0.84375 1.359375 -2.484375q0 -1.484375 -1.359375 -2.359375q-1.34375 -0.875 -5.546875 -1.703125q-4.1875 -0.828125 -5.90625 -2.328125q-1.703125 -1.5 -1.703125 -4.0q0 -2.921875 2.359375 -4.609375q2.375 -1.703125 5.96875 -1.703125zm23.171875 0q4.796875 0 7.4375 3.4375q2.640625 3.4375 2.640625 8.84375l0 0.4375l-16.640625 0l0 0.265625q0 3.171875 1.84375 5.109375q1.84375 1.9375 5.078125 1.9375q2.4375 0 3.875 -1.125q1.4375 -1.140625 1.875 -3.234375l3.609375 0q-0.734375 3.703125 -3.234375 5.65625q-2.484375 1.9375 -6.25 1.9375q-3.5 0 -5.9375 -1.578125q-2.421875 -1.59375 -3.578125 -4.421875q-1.15625 -2.828125 -1.15625 -5.78125q0 -4.921875 2.953125 -8.203125q2.96875 -3.28125 7.484375 -3.28125zm-6.5625 9.484375l12.765625 0q-0.171875 -2.703125 -1.96875 -4.484375q-1.796875 -1.796875 -4.484375 -1.796875q-2.515625 0 -4.3125 1.703125q-1.78125 1.703125 -2.0 4.578125zm31.301697 -9.515625q0.125 0 0.234375 0q0.109375 0 0.265625 0.03125l0 3.859375q-4.109375 0 -6.078125 2.1875q-1.953125 2.171875 -1.953125 6.734375l0 9.953125l-3.65625 0l0 -22.234375l3.4375 0l0 4.6875l0.09375 0q1.28125 -2.65625 3.15625 -3.9375q1.875 -1.28125 4.5 -1.28125z" fill-rule="nonzero"></path><path fill="#000000" fill-opacity="0.0" d="m568.4152 197.57628l143.93701 0l0 61.38582l-143.93701 0z" fill-rule="evenodd"></path><path fill="#000000" d="m586.98193 211.83316l0 15.3125l15.578125 -15.3125l5.28125 0l-12.953125 12.390625l13.46875 18.3125l-5.171875 0l-11.078125 -15.515625l-5.125 4.765625l0 10.75l-4.078125 0l0 -30.703125l4.078125 0zm32.99823 7.96875q4.796875 0 7.4375 3.4375q2.640625 3.4375 2.640625 8.84375l0 0.4375l-16.640625 0l0 0.265625q0 3.171875 1.84375 5.109375q1.84375 1.9375 5.078125 1.9375q2.4375 0 3.875 -1.125q1.4375 -1.140625 1.875 -3.234375l3.609375 0q-0.734375 3.703125 -3.234375 5.65625q-2.484375 1.9375 -6.25 1.9375q-3.5 0 -5.9375 -1.578125q-2.421875 -1.59375 -3.578125 -4.421875q-1.15625 -2.828125 -1.15625 -5.78125q0 -4.921875 2.953125 -8.203125q2.96875 -3.28125 7.484375 -3.28125zm-6.5625 9.484375l12.765625 0q-0.171875 -2.703125 -1.96875 -4.484375q-1.796875 -1.796875 -4.484375 -1.796875q-2.515625 0 -4.3125 1.703125q-1.78125 1.703125 -2.0 4.578125zm31.301697 -9.515625q0.125 0 0.234375 0q0.109375 0 0.265625 0.03125l0 3.859375q-4.109375 0 -6.078125 2.1875q-1.953125 2.171875 -1.953125 6.734375l0 9.953125l-3.65625 0l0 -22.234375l3.4375 0l0 4.6875l0.09375 0q1.28125 -2.65625 3.15625 -3.9375q1.875 -1.28125 4.5 -1.28125zm13.90802 0.03125q4.015625 0 5.828125 2.0625q1.828125 2.046875 1.828125 5.875l0 14.796875l-3.65625 0l0 -15.1875q0 -1.875 -1.21875 -3.109375q-1.203125 -1.234375 -3.34375 -1.234375q-3.078125 0 -4.8125 1.90625q-1.734375 1.90625 -1.734375 4.921875l0 12.703125l-3.65625 0l0 -22.234375l3.4375 0l0 3.53125l0.09375 0q1.21875 -2.078125 2.984375 -3.046875q1.78125 -0.984375 4.25 -0.984375zm22.192139 0q4.796875 0 7.4375 3.4375q2.640625 3.4375 2.640625 8.84375l0 0.4375l-16.640625 0l0 0.265625q0 3.171875 1.84375 5.109375q1.84375 1.9375 5.078125 1.9375q2.4375 0 3.875 -1.125q1.4375 -1.140625 1.875 -3.234375l3.609375 0q-0.734375 3.703125 -3.234375 5.65625q-2.484375 1.9375 -6.25 1.9375q-3.5 0 -5.9375 -1.578125q-2.421875 -1.59375 -3.578125 -4.421875q-1.15625 -2.828125 -1.15625 -5.78125q0 -4.921875 2.953125 -8.203125q2.96875 -3.28125 7.484375 -3.28125zm-6.5625 9.484375l12.765625 0q-0.171875 -2.703125 -1.96875 -4.484375q-1.796875 -1.796875 -4.484375 -1.796875q-2.515625 0 -4.3125 1.703125q-1.78125 1.703125 -2.0 4.578125zm24.098572 -17.453125l0 30.703125l-3.65625 0l0 -30.703125l3.65625 0z" fill-rule="nonzero"></path><path fill="#000000" fill-opacity="0.0" d="m321.42297 127.35685l-0.1574707 70.3937" fill-rule="evenodd"></path><path stroke="#000000" stroke-width="4.0" stroke-linejoin="round" stroke-linecap="butt" d="m321.42297 127.35685l-0.12680054 56.685387" fill-rule="evenodd"></path><path fill="#000000" stroke="#000000" stroke-width="4.0" stroke-linecap="butt" d="m321.29617 184.04224l-4.4882507 -4.508377l4.4706726 12.369095l4.5259705 -12.3489685z" fill-rule="evenodd"></path><path fill="#000000" fill-opacity="0.0" d="m384.53677 197.65964l0.15750122 -70.29922" fill-rule="evenodd"></path><path stroke="#000000" stroke-width="4.0" stroke-linejoin="round" stroke-linecap="butt" d="m384.53677 197.65964l0.12677002 -56.590897" fill-rule="evenodd"></path><path fill="#000000" stroke="#000000" stroke-width="4.0" stroke-linecap="butt" d="m384.66354 141.06873l4.4882507 4.5084076l-4.470642 -12.369125l-4.526001 12.3489685z" fill-rule="evenodd"></path><path fill="#000000" fill-opacity="0.0" d="m384.70358 328.06085l-0.15750122 -43.212616" fill-rule="evenodd"></path><path stroke="#000000" stroke-width="4.0" stroke-linejoin="round" stroke-linecap="butt" d="m384.70358 328.06085l-0.107543945 -29.504364" fill-rule="evenodd"></path><path fill="#000000" stroke="#000000" stroke-width="4.0" stroke-linecap="butt" d="m384.59604 298.5565l4.5147095 4.4819336l-4.543335 -12.342621l-4.4532776 12.375397z" fill-rule="evenodd"></path><path fill="#000000" fill-opacity="0.0" d="m384.87027 459.3944l-0.1574707 -43.212616" fill-rule="evenodd"></path><path stroke="#000000" stroke-width="4.0" stroke-linejoin="round" stroke-linecap="butt" d="m384.87027 459.3944l-0.10751343 -29.504364" fill-rule="evenodd"></path><path fill="#000000" stroke="#000000" stroke-width="4.0" stroke-linecap="butt" d="m384.76276 429.89005l4.5147095 4.4819336l-4.5433655 -12.342621l-4.453247 12.375397z" fill-rule="evenodd"></path><path fill="#000000" fill-opacity="0.0" d="m385.037 593.51514l-0.1574707 -43.212585" fill-rule="evenodd"></path><path stroke="#000000" stroke-width="4.0" stroke-linejoin="round" stroke-linecap="butt" d="m385.037 593.51514l-0.10751343 -29.504333" fill-rule="evenodd"></path><path fill="#000000" stroke="#000000" stroke-width="4.0" stroke-linecap="butt" d="m384.92947 564.0108l4.514679 4.4818726l-4.543335 -12.34259l-4.453247 12.375427z" fill-rule="evenodd"></path><path fill="#000000" fill-opacity="0.0" d="m321.58972 284.66678l-0.1574707 45.039368" fill-rule="evenodd"></path><path stroke="#000000" stroke-width="4.0" stroke-linejoin="round" stroke-linecap="butt" d="m321.58972 284.66678l-0.109558105 31.331085" fill-rule="evenodd"></path><path fill="#000000" stroke="#000000" stroke-width="4.0" stroke-linecap="butt" d="m321.4802 315.99786l-4.482605 -4.5140076l4.4551086 12.374695l4.541504 -12.343262z" fill-rule="evenodd"></path><path fill="#000000" fill-opacity="0.0" d="m321.2563 416.18265l-0.15750122 45.0394" fill-rule="evenodd"></path><path stroke="#000000" stroke-width="4.0" stroke-linejoin="round" stroke-linecap="butt" d="m321.2563 416.18265l-0.109558105 31.331146" fill-rule="evenodd"></path><path fill="#000000" stroke="#000000" stroke-width="4.0" stroke-linecap="butt" d="m321.14673 447.51376l-4.4825745 -4.514038l4.455078 12.374725l4.5415344 -12.343262z" fill-rule="evenodd"></path><path fill="#000000" fill-opacity="0.0" d="m321.08957 547.69684l-0.1574707 45.039368" fill-rule="evenodd"></path><path stroke="#000000" stroke-width="4.0" stroke-linejoin="round" stroke-linecap="butt" d="m321.08957 547.69684l-0.109558105 31.331116" fill-rule="evenodd"></path><path fill="#000000" stroke="#000000" stroke-width="4.0" stroke-linecap="butt" d="m320.98 579.0279l-4.4825745 -4.514038l4.4551086 12.374756l4.541504 -12.343262z" fill-rule="evenodd"></path></g></svg>

